<svg width="66" height="28" viewBox="0 0 66 28" fill="none" xmlns="http://www.w3.org/2000/svg">
<path d="M54.0291 19.4762V0.545334L56.4701 0V6.49206H59.4564C59.9758 6.49206 60.4172 6.68249 60.7808 7.06336C61.1444 7.42692 61.3261 7.86838 61.3261 8.38774V19.4762H58.8851V9.86793C58.8851 9.60825 58.7899 9.39185 58.5995 9.21873C58.4263 9.02829 58.2099 8.93307 57.9503 8.93307H56.4701V19.4762H54.0291Z" fill="#F0F0EC"/>
<path d="M47.9937 19.4756V0.570723L50.4347 0.0253906V6.49148H53.5249L52.9536 8.9325H50.4347V19.4756H47.9937Z" fill="#F0F0EC"/>
<path d="M44.6461 3.01232V0.571302L47.0871 0V2.44102L44.6461 3.01232ZM44.6981 19.4762V7.06336L47.1391 6.49206V19.4762H44.6981Z" fill="#F0F0EC"/>
<path d="M38.452 19.4763C37.9326 19.4763 37.4825 19.2945 37.1016 18.931C36.7381 18.5674 36.5563 18.1173 36.5563 17.5806V13.6594C36.5563 13.1401 36.7381 12.6986 37.1016 12.335C37.4825 11.9542 37.9326 11.7637 38.452 11.7637H40.4775C40.7545 11.7637 40.9795 11.6772 41.1527 11.5041C41.3431 11.3136 41.4383 11.0886 41.4383 10.8289V9.86806C41.4383 9.60838 41.3431 9.39197 41.1527 9.21885C40.9795 9.02842 40.7545 8.9332 40.4775 8.9332H37.6729L38.2182 6.49219H41.9836C42.503 6.49219 42.9445 6.68262 43.308 7.06349C43.6889 7.42704 43.8793 7.8685 43.8793 8.38787V19.4763H38.452ZM39.9321 17.0353H41.4383V14.2048H39.9321C39.6725 14.2048 39.4474 14.3 39.257 14.4904C39.0839 14.6635 38.9973 14.8799 38.9973 15.1396V16.1004C38.9973 16.3601 39.0839 16.5852 39.257 16.7756C39.4474 16.9487 39.6725 17.0353 39.9321 17.0353Z" fill="#F0F0EC"/>
<path d="M29.8748 19.4766V1.29883H39.5349V3.71387H32.2898V8.20638H37.1199L36.5746 10.6214H32.2898V19.4766H29.8748Z" fill="#F0F0EC"/>
<path d="M23.4139 19.4762C22.8772 19.4762 22.4271 19.2944 22.0635 18.9308C21.7 18.5673 21.5182 18.1172 21.5182 17.5805V8.38774C21.5182 7.85107 21.7 7.40095 22.0635 7.03739C22.4271 6.67384 22.8772 6.49206 23.4139 6.49206H26.4002V0.571302L28.8412 0V19.4762H23.4139ZM24.8941 17.0352H26.4002V8.93307H24.8941C24.6517 8.93307 24.4353 9.01964 24.2449 9.19276C24.0544 9.36588 23.9592 9.59094 23.9592 9.86793V16.1003C23.9592 16.3427 24.0544 16.5591 24.2449 16.7495C24.4353 16.9399 24.6517 17.0352 24.8941 17.0352Z" fill="#F0F0EC"/>
<path d="M18.1199 19.477V0.598067L20.5609 0.0527344V19.477H18.1199Z" fill="#F0F0EC"/>
<path d="M12.0829 19.4763C11.5463 19.4763 11.0961 19.2945 10.7326 18.931C10.369 18.5501 10.1873 18.1 10.1873 17.5806V8.38787C10.1873 7.8685 10.369 7.42704 10.7326 7.06349C11.0961 6.68262 11.5463 6.49219 12.0829 6.49219H15.6146C16.134 6.49219 16.5754 6.68262 16.939 7.06349C17.3026 7.42704 17.4843 7.8685 17.4843 8.38787V17.5806C17.4843 18.1 17.3026 18.5501 16.939 18.931C16.5754 19.2945 16.134 19.4763 15.6146 19.4763H12.0829ZM13.5631 17.0353H14.1085C14.3681 17.0353 14.5932 16.9487 14.7836 16.7756C14.9741 16.5852 15.0693 16.3601 15.0693 16.1004V9.86806C15.0693 9.60838 14.9741 9.39197 14.7836 9.21885C14.5932 9.02842 14.3681 8.9332 14.1085 8.9332H13.5631C13.3034 8.9332 13.0784 9.02842 12.888 9.21885C12.7148 9.39197 12.6283 9.60838 12.6283 9.86806V16.1004C12.6283 16.3601 12.7148 16.5852 12.888 16.7756C13.0784 16.9487 13.3034 17.0353 13.5631 17.0353Z" fill="#F0F0EC"/>
<path d="M0.0649345 19.6783L0 1.47461H6.59593C7.13261 1.47461 7.58273 1.66504 7.94628 2.04591C8.30984 2.40947 8.49162 2.84227 8.49162 3.34432V8.512C8.83786 8.63319 9.12351 8.85825 9.34857 9.18718C9.57363 9.51611 9.68615 9.87101 9.68615 10.2519V17.7827C9.68615 18.3193 9.50438 18.7695 9.14082 19.133C8.77727 19.4966 8.33581 19.6783 7.81644 19.6783H0.0649345ZM2.44102 8.40813H5.11574C5.37543 8.40813 5.60048 8.31291 5.79092 8.12248C5.98135 7.93204 6.07657 7.71564 6.07657 7.47327V4.82451C6.07657 4.56483 5.98135 4.34843 5.79092 4.17531C5.60048 3.98487 5.37543 3.88966 5.11574 3.88966H2.44102V8.40813ZM2.44102 17.2633H6.36222C6.60459 17.2633 6.81234 17.1767 6.98546 17.0036C7.17589 16.8132 7.27111 16.5795 7.27111 16.3025V11.7321C7.27111 11.4897 7.17589 11.2733 6.98546 11.0829C6.81234 10.8924 6.60459 10.7972 6.36222 10.7972H2.44102V17.2633Z" fill="#F0F0EC"/>
<rect x="0.0649414" y="18.0566" width="65.935" height="2.43452" fill="#F0F0EC"/>
<rect x="58.8992" y="8.52148" width="2.43452" height="19.4762" fill="#F0F0EC"/>
</svg>
